***** Inhale.2010.DVDRiP.XViD.NORDIC-Zen_Bud *****

Format                           : AVI
File size                        : 705 MiB
Duration                         : 1h 19mn
Overall bit rate                 : 1 238 Kbps

Video

Format                           : MPEG-4 Visual
Codec ID/Hint                    : XviD
Duration                         : 1h 19mn
Bit rate                         : 1 097 Kbps
Width                            : 720 pixels
Height                           : 576 pixels
Display aspect ratio             : 16:9
Stream size                      : 625 MiB (89%)
Writing library                  : XviD 1.1.2 (UTC 2006-11-01)

Audio

Format                           : MPEG Audio
Codec ID/Hint                    : MP3
Duration                         : 1h 19mn
Bit rate                         : 128 Kbps
Channel(s)                       : 2 channels
Sampling rate                    : 48.0 KHz
Stream size                      : 72.9 MiB (10%)
Writing library                  : LAME3.98
Language                         : English

Text #1
Language                         : Finnish

Text #2
Language                         : Norwegian

Text #3
Language                         : Swedish

Text #4
Language                         : Danish
****************************************************************

A couple goes to dangerous lengths
to find a lung donor for their daughter. 

****************************************************************